<svg xmlns="http://www.w3.org/2000/svg" width="1180" height="520" viewBox="0 0 1180 520"><defs><linearGradient id="bg"><stop stop-color="#f8fbff"/><stop offset="1" stop-color="#f5efff"/></linearGradient><linearGradient id="a"><stop stop-color="#22d3ee"/><stop offset=".5" stop-color="#8b5cf6"/><stop offset="1" stop-color="#ec4899"/></linearGradient><filter id="s"><feDropShadow dy="12" stdDeviation="18" flood-opacity=".18"/></filter><pattern id="g" width="32" height="32" patternUnits="userSpaceOnUse"><path d="M32 0H0V32" fill="none" stroke="#94a3b8" opacity=".1"/></pattern></defs><rect width="1180" height="520" rx="28" fill="url(#bg)"/><rect width="1180" height="520" rx="28" fill="url(#g)"/><rect x="54" y="44" width="1072" height="432" rx="24" fill="#fff" fill-opacity=".78" stroke="#dbeafe" filter="url(#s)"/><rect x="54" y="44" width="7" height="432" rx="4" fill="url(#a)"/><g transform="translate(98 84)" font-family="Arial,sans-serif"><circle cx="8" cy="8" r="8" fill="#22d3ee"/><text x="27" y="13" font-size="14" font-weight="700" fill="#64748b" letter-spacing="2">AI SYSTEM PROFILE • ONLINE</text><circle cx="938" cy="8" r="5" fill="#34d399"><animate attributeName="opacity" values="1;.3;1" dur="2s" repeatCount="indefinite"/></circle><text x="953" y="13" font-size="13" fill="#34d399">AVAILABLE</text><text y="93" font-size="52" font-weight="800" fill="#0f172a">Yaythish Kannaa G S</text><rect y="113" width="520" height="4" rx="2" fill="url(#a)"/><text y="154" font-size="22" font-weight="600" fill="#6d28d9">AI/ML Developer • Computer Vision • Geospatial AI</text><text y="193" font-size="16" fill="#64748b">Building intelligent systems from research → real-world deployment.</text><g transform="translate(0 231)" font-size="14" font-weight="700"><rect width="150" height="42" rx="21" fill="none" stroke="#22d3ee"/><text x="75" y="27" text-anchor="middle" fill="#0891b2">PYTHON + AI</text><rect x="164" width="174" height="42" rx="21" fill="none" stroke="#8b5cf6"/><text x="251" y="27" text-anchor="middle" fill="#8b5cf6">COMPUTER VISION</text><rect x="352" width="158" height="42" rx="21" fill="none" stroke="#ec4899"/><text x="431" y="27" text-anchor="middle" fill="#db2777">GEOSPATIAL AI</text></g><text y="330" font-size="12" font-weight="700" fill="#94a3b8" letter-spacing="1.5">CURRENT SIGNAL</text><text y="360" font-size="16" fill="#334155">Researching • Building • Learning • Shipping</text><g transform="translate(700 100)"><circle cx="125" cy="125" r="116" fill="none" stroke="#dbeafe"/><circle cx="125" cy="125" r="91" fill="none" stroke="#22d3ee" opacity=".35"/><circle cx="125" cy="125" r="65" fill="none" stroke="#8b5cf6" opacity=".5"/><path d="M64 125c18-39 41-58 61-58s43 19 61 58c-18 39-41 58-61 58s-43-19-61-58Z" fill="none" stroke="url(#a)" stroke-width="2"/><circle cx="125" cy="125" r="27" fill="#8b5cf6" opacity=".16"/><circle cx="125" cy="125" r="8" fill="#22d3ee"/><circle cx="125" cy="34" r="4" fill="#ec4899"><animateTransform attributeName="transform" type="rotate" from="0 125 125" to="360 125 125" dur="9s" repeatCount="indefinite"/></circle><text x="125" y="278" text-anchor="middle" font-size="11" font-weight="700" fill="#94a3b8" letter-spacing="1.5">INTELLIGENCE // VISION // DATA</text></g></g></svg>