<svg xmlns="http://www.w3.org/2000/svg" width="1180" height="520" viewBox="0 0 1180 520">
<defs>
 <linearGradient id="bg" x1="0" y1="0" x2="1" y2="1"><stop stop-color="#050816"/><stop offset=".55" stop-color="#0b1227"/><stop offset="1" stop-color="#11102b"/></linearGradient>
 <linearGradient id="accent"><stop stop-color="#22d3ee"/><stop offset=".5" stop-color="#8b5cf6"/><stop offset="1" stop-color="#ec4899"/></linearGradient>
 <radialGradient id="glow"><stop stop-color="#8b5cf6" stop-opacity=".28"/><stop offset="1" stop-color="#8b5cf6" stop-opacity="0"/></radialGradient>
 <filter id="shadow"><feDropShadow dx="0" dy="12" stdDeviation="18" flood-opacity=".45"/></filter>
 <filter id="soft"><feGaussianBlur stdDeviation="28"/></filter>
 <pattern id="grid" width="32" height="32" patternUnits="userSpaceOnUse"><path d="M32 0H0V32" fill="none" stroke="#334155" stroke-opacity=".10"/></pattern>
</defs>
<rect width="1180" height="520" rx="28" fill="url(#bg)"/>
<rect width="1180" height="520" rx="28" fill="url(#grid)"/>
<circle cx="1040" cy="85" r="180" fill="url(#glow)" filter="url(#soft)"/>
<circle cx="90" cy="470" r="150" fill="#22d3ee" opacity=".07" filter="url(#soft)"/>
<rect x="1" y="1" width="1178" height="518" rx="27" fill="none" stroke="url(#accent)" stroke-opacity=".42"/>
<g transform="translate(54 44)">
 <rect width="1072" height="432" rx="24" fill="#0b1020" fill-opacity=".70" stroke="#26324d" filter="url(#shadow)"/>
 <rect x="0" y="0" width="7" height="432" rx="3.5" fill="url(#accent)"/>
 <g transform="translate(44 40)">
  <circle cx="8" cy="8" r="8" fill="#22d3ee"/><text x="27" y="13" font-family="Arial,sans-serif" font-size="14" font-weight="700" fill="#94a3b8" letter-spacing="2">AI SYSTEM PROFILE • ONLINE</text>
  <circle cx="938" cy="8" r="5" fill="#34d399"><animate attributeName="opacity" values="1;.35;1" dur="2s" repeatCount="indefinite"/></circle>
  <text x="953" y="13" font-family="Arial,sans-serif" font-size="13" fill="#34d399">AVAILABLE</text>
  <text x="0" y="93" font-family="Arial,sans-serif" font-size="52" font-weight="800" fill="#f8fafc">Yaythish Kannaa G S</text>
  <rect x="0" y="113" width="520" height="4" rx="2" fill="url(#accent)"/>
  <text x="0" y="154" font-family="Arial,sans-serif" font-size="22" font-weight="600" fill="#c4b5fd">AI/ML Developer  •  Computer Vision  •  Geospatial AI</text>
  <text x="0" y="193" font-family="Arial,sans-serif" font-size="16" fill="#94a3b8">Building intelligent systems from research → real-world deployment.</text>
  <g transform="translate(0 231)" font-family="Arial,sans-serif">
   <rect width="150" height="42" rx="21" fill="#111c33" stroke="#22d3ee" stroke-opacity=".5"/><text x="75" y="27" text-anchor="middle" font-size="14" font-weight="700" fill="#67e8f9">PYTHON + AI</text>
   <rect x="164" width="174" height="42" rx="21" fill="#18152f" stroke="#8b5cf6" stroke-opacity=".5"/><text x="251" y="27" text-anchor="middle" font-size="14" font-weight="700" fill="#c4b5fd">COMPUTER VISION</text>
   <rect x="352" width="158" height="42" rx="21" fill="#271326" stroke="#ec4899" stroke-opacity=".5"/><text x="431" y="27" text-anchor="middle" font-size="14" font-weight="700" fill="#f9a8d4">GEOSPATIAL AI</text>
  </g>
  <g transform="translate(0 310)" font-family="Arial,sans-serif">
   <text font-size="12" font-weight="700" fill="#64748b" letter-spacing="1.5">CURRENT SIGNAL</text>
   <text y="30" font-size="16" fill="#e2e8f0">Researching • Building • Learning • Shipping</text>
   <text y="63" font-size="14" fill="#64748b">C-DAC Chennai  ·  github.com/Yaythish2462</text>
  </g>
  <g transform="translate(700 100)">
   <circle cx="125" cy="125" r="116" fill="none" stroke="#24304b" stroke-width="1"/>
   <circle cx="125" cy="125" r="91" fill="none" stroke="#22d3ee" stroke-opacity=".30"/>
   <circle cx="125" cy="125" r="65" fill="none" stroke="#8b5cf6" stroke-opacity=".45"/>
   <path d="M125 8v34M125 208v34M8 125h34M208 125h34" stroke="#475569" stroke-opacity=".55"/>
   <path d="M64 125c18-39 41-58 61-58s43 19 61 58c-18 39-41 58-61 58s-43-19-61-58Z" fill="none" stroke="url(#accent)" stroke-width="2"/>
   <circle cx="125" cy="125" r="27" fill="url(#accent)" opacity=".18"/>
   <circle cx="125" cy="125" r="8" fill="#22d3ee"/>
   <circle cx="125" cy="125" r="4" fill="#fff"/>
   <circle cx="125" cy="34" r="3" fill="#ec4899"><animateTransform attributeName="transform" type="rotate" from="0 125 125" to="360 125 125" dur="9s" repeatCount="indefinite"/></circle>
   <text x="125" y="278" text-anchor="middle" font-family="Arial,sans-serif" font-size="12" font-weight="700" fill="#64748b" letter-spacing="2">INTELLIGENCE // VISION // DATA</text>
  </g>
 </g>
</g>
</svg>